<?xml version="1.0" encoding="UTF-8" standalone="no"?>
<svg
  xmlns="http://www.w3.org/2000/svg"
  version="1.1"
  x="0px"
  y="0px"
  viewBox="0 0 16 16"
  style="enable-background:new 0 0 16 16;"
  xml:space="preserve"
  id="svg76"
>
  <defs
    id="defs80"/>
  <g
    id="Delete_x5F_16px"><rect
       style="fill:none;stroke-width:1.18406284"
       width="18.212877"
       height="19.706564"
       id="rect66"
       x="-2.2630525"
       y="0.046180502" />
    <circle
      id="Warning_2_"
      transform="matrix(0.67872674,-0.73439091,0.67872674,0.73439091,0,0)"
      style="fill:#d74641;stroke-width:1.1858902"
      cx="0.86537141"
      cy="15.974285"
      r="4.7435608"/>
    <polygon
      id="Cross_6_"
      style="fill:#ffffff"
      points="12,13.131 13.272,14.403 14.403,13.272 13.131,12 14.403,10.728 13.275,9.601 12.004,10.872 10.728,9.597 9.597,10.728 10.869,12 9.597,13.272 10.728,14.403 "
      transform="matrix(1.1383049,0,0,1.2316602,-2.2299035,-3.7199398)"/>
    <path
      style="fill:#828fa8;stroke-width:1.18406284"
      d="M 9.2269964,4.9728214 H 11.396605 L 7.9816909,0.0461805 v 3.5792046 c 0,0.7439228 0.5577694,1.3474363 1.2453055,1.3474363 z"
      id="path70"
    />
    <path
      style="fill:#828fa8;stroke-width:1.18406284"
      d="M 5.8347338,10.925054 C 5.877599,9.7951189 6.2832837,8.6656244 6.8492461,7.7148903 7.198094,7.1288765 8.2556458,6.2805688 8.2556458,6.2805688 L 7.9816909,6.2044817 C 7.5770507,6.0920988 6.8456627,5.4248407 6.8433861,4.9728214 V 0.0461805 H 2.2901667 c -1.33067829,0 -2.27660967,1.0235097 -2.27660967,2.4633205 v 11.084943 c 0,1.259988 1.11213287,2.458361 2.27660967,2.46332 l 5.9558864,0.02536 C 7.773538,15.629826 6.9815055,14.946782 6.5958011,14.184911 6.098177,13.201969 5.7922526,12.044864 5.8347338,10.925054 Z"
      id="path72"
    /></g>
  <g
    id="Layer_1"/></svg>