<?xml version="1.0" encoding="iso-8859-1"?>
<!-- Generator: Adobe Illustrator 19.2.1, SVG Export Plug-In . SVG Version: 6.00 Build 0)  -->
<!DOCTYPE svg PUBLIC "-//W3C//DTD SVG 1.1//EN" "http://www.w3.org/Graphics/SVG/1.1/DTD/svg11.dtd">
<svg version="1.1" xmlns="http://www.w3.org/2000/svg" xmlns:xlink="http://www.w3.org/1999/xlink" x="0px" y="0px"
	 viewBox="0 0 15.987 16" style="enable-background:new 0 0 15.987 16;" xml:space="preserve">
<g id="Edit_x5F_16px">
	<g>
		<path style="fill:#828FA8;" d="M8.036,5h2.906L7,0v3.906C7,4.51,7.432,5,8.036,5z"/>
		<path style="fill:#828FA8;" d="M10.038,13.923L5.393,15.45c-0.377,0.124-0.734-0.234-0.609-0.611l1.537-4.635l0.283-0.853
			l0.461-0.461L9.955,6H6.942C6.422,6,6,5.578,6,5.058V0H1.958C0.877,0,0,0.877,0,1.958v12.083C0,15.123,0.877,16,1.958,16h7.083
			C10.123,16,11,15.123,11,14.042v-0.509l-0.111,0.111L10.038,13.923z M4,6.833V6.732c0.052,0.034,0.104,0.066,0.154,0.102H4z"/>
	</g>
	<path style="fill:#00A5E6;" d="M15.8,6.555c0.25-0.25,0.25-0.655,0-0.905l-1.208-1.208c-0.25-0.25-0.655-0.25-0.905,0L8.596,9.533
		l2.113,2.113L15.8,6.555z M7.558,10.571l-1.045,3.151l3.158-1.038L7.558,10.571z"/>
</g>
<g id="Layer_1">
</g>
</svg>
